<svg width="101" height="37" viewBox="0 0 101 37" fill="none" xmlns="http://www.w3.org/2000/svg">
<g id="Logo" clip-path="url(#clip0_6_212)">
<path id="Vector" d="M11.433 5.05133H0.422852V31.3823L11.433 5.05133Z" fill="#9CA3AF"/>
<path id="Vector_2" d="M19.1802 5.05133H30.1759V31.3823L19.1802 5.05133Z" fill="#9CA3AF"/>
<path id="Vector_3" d="M15.3056 14.7562L22.3133 31.3826H17.7156L15.6212 26.0891H10.4927L15.3056 14.7562Z" fill="#9CA3AF"/>
<path id="Vector_4" d="M48.1375 21.7956L49.4358 25.5182C49.4788 25.6115 49.5433 25.6545 49.6581 25.6545H52.1542C52.2905 25.6545 52.312 25.5899 52.2905 25.4537L47.1333 11.1298C47.1118 11.015 47.0903 10.9935 46.9755 10.9935H43.8769C43.7908 10.9935 43.7406 11.058 43.7406 11.1513C43.6976 11.9044 43.633 12.1339 43.5398 12.3563L38.9421 25.4321C38.9206 25.5899 38.9708 25.6545 39.0999 25.6545H41.3306C41.4669 25.6545 41.5314 25.6115 41.5816 25.4752L42.8082 21.7956H48.1375ZM43.5183 19.364C44.1925 17.327 45.0819 14.7161 45.4406 13.2242H45.4621C45.9068 14.7878 46.954 17.8864 47.4274 19.364H43.5183Z" fill="#9CA3AF"/>
<path id="Vector_5" d="M58.9202 25.8761C60.2615 25.8761 61.6888 25.6323 63.1377 25.0082C63.2525 24.9652 63.274 24.915 63.274 24.8074C63.231 24.4057 63.1808 23.8247 63.1808 23.38V9.89535C63.1808 9.80927 63.1808 9.76624 63.0732 9.76624H60.6416C60.5484 9.76624 60.5054 9.80927 60.5054 9.92404V14.4931C60.1252 14.45 59.8598 14.4285 59.5442 14.4285C55.6207 14.4285 53.2107 17.0178 53.2107 20.2527C53.2107 24.0041 55.6853 25.8761 58.9202 25.8761ZM60.5053 23.38C60.1037 23.5091 59.659 23.5594 59.2071 23.5594C57.4282 23.5594 55.9722 22.5552 55.9722 20.1165C55.9722 17.9575 57.4713 16.6807 59.4581 16.6807C59.8598 16.6807 60.2113 16.7238 60.5053 16.8385V23.38Z" fill="#9CA3AF"/>
<path id="Vector_6" d="M71.0305 14.4283C67.6808 14.4283 65.6079 16.9961 65.6079 20.1664C65.6079 22.9996 67.2576 25.8759 70.9803 25.8759C74.1291 25.8759 76.3383 23.5591 76.3383 20.0947C76.3383 17.0391 74.4662 14.4283 71.0305 14.4283ZM70.8942 16.6805C72.7878 16.6805 73.5911 18.3087 73.5911 20.1664C73.5911 22.4617 72.4076 23.6021 71.0305 23.6021C69.3305 23.6021 68.3264 22.1748 68.3264 20.1162C68.3264 18.0003 69.3951 16.6805 70.8942 16.6805Z" fill="#9CA3AF"/>
<path id="Vector_7" d="M78.8526 9.76624C78.7594 9.76624 78.6948 9.80927 78.6948 9.92404V25.1876C78.6948 25.2521 78.7594 25.3669 78.8526 25.3884C79.9214 25.7183 81.0403 25.8761 82.1951 25.8761C85.5017 25.8761 88.7151 23.8247 88.7151 19.6933C88.7151 16.7022 86.6637 14.4285 83.4503 14.4285C82.7115 14.4285 82.023 14.5433 81.4204 14.7441L81.3918 9.94555C81.3918 9.78775 81.3487 9.76624 81.1909 9.76624H78.8526ZM85.9679 19.9658C85.9679 22.4404 84.2752 23.6024 82.4461 23.6024C82.066 23.6024 81.7289 23.5809 81.4204 23.4876V16.9748C81.7719 16.8385 82.1951 16.7238 82.9769 16.7238C84.7414 16.7238 85.9679 17.8427 85.9679 19.9658Z" fill="#9CA3AF"/>
<path id="Vector_8" d="M97.7901 20.7689C98.8803 20.7689 99.7769 20.7474 100.085 20.6757C100.2 20.6542 100.243 20.6111 100.265 20.5179C100.329 20.274 100.358 19.7648 100.358 19.1407C100.358 17.0176 99.0811 14.4283 95.7817 14.4283C92.4105 14.4283 90.5385 17.1754 90.5385 20.274C90.5385 23.0212 91.9873 25.8759 96.0471 25.8759C97.5677 25.8759 98.5504 25.632 99.3967 25.2304C99.4828 25.1873 99.5258 25.1156 99.5258 24.9865V23.1288C99.5258 23.0212 99.4613 22.9996 99.3967 23.0427C98.5504 23.4013 97.6323 23.5806 96.6281 23.5806C94.3543 23.5806 93.3215 22.3254 93.2569 20.7689H97.7901ZM93.2569 18.8466C93.4362 17.7564 94.1248 16.5729 95.6669 16.5729C97.3669 16.5729 97.8116 18.0003 97.8116 18.6458C97.8116 18.6673 97.8116 18.7606 97.8116 18.8251C97.7183 18.8466 97.4314 18.8466 96.585 18.8466H93.2569Z" fill="#9CA3AF"/>
</g>
<defs>
<clipPath id="clip0_6_212">
<rect width="100.058" height="36.1111" fill="white" transform="translate(0.422852 0.537476)"/>
</clipPath>
</defs>
</svg>
