<svg width="84" height="37" viewBox="0 0 84 37" fill="none" xmlns="http://www.w3.org/2000/svg">
<g id="Logo" clip-path="url(#clip0_6_208)">
<g id="Vector">
<path fill-rule="evenodd" clip-rule="evenodd" d="M51.401 28.9794C46.6136 32.5081 39.6746 34.3908 33.7002 34.3908C25.3231 34.3908 17.7816 31.2925 12.0762 26.1393C11.6279 25.7341 12.0296 25.1818 12.5675 25.4974C18.7247 29.0799 26.338 31.2351 34.2022 31.2351C39.506 31.2351 45.3406 30.1377 50.7053 27.8606C51.5158 27.5163 52.1935 28.3913 51.401 28.9794Z" fill="#9CA3AF"/>
<path fill-rule="evenodd" clip-rule="evenodd" d="M53.3913 26.7023C52.7817 25.9206 49.3463 26.333 47.8043 26.5158C47.3345 26.5732 47.2628 26.1644 47.6859 25.8704C50.4221 23.9446 54.9118 24.5005 55.4354 25.146C55.959 25.795 55.2991 30.2956 52.7279 32.4436C52.3334 32.7735 51.9569 32.5978 52.1326 32.1603C52.71 30.7187 54.0046 27.4877 53.3913 26.7023Z" fill="#9CA3AF"/>
</g>
<g id="Vector_2">
<path fill-rule="evenodd" clip-rule="evenodd" d="M47.9131 12.2763V10.4044C47.9131 10.1211 48.1282 9.93103 48.3864 9.93103H56.7671C57.036 9.93103 57.2512 10.1247 57.2512 10.4044V12.0074C57.2476 12.2763 57.0217 12.6278 56.6201 13.1836L52.2773 19.3839C53.8911 19.3445 55.5944 19.5847 57.0576 20.4095C57.3875 20.596 57.4771 20.8685 57.5022 21.1375V23.1349C57.5022 23.4075 57.201 23.7266 56.8854 23.5617C54.307 22.2097 50.8823 22.0627 48.0314 23.576C47.7409 23.7338 47.4361 23.4182 47.4361 23.1457V21.2487C47.4361 20.9439 47.4397 20.4239 47.7445 19.9613L52.7758 12.7461H48.3972C48.1282 12.7461 47.9131 12.556 47.9131 12.2763Z" fill="#9CA3AF"/>
<path fill-rule="evenodd" clip-rule="evenodd" d="M17.3418 23.9562H14.7921C14.5482 23.9382 14.3546 23.7554 14.3367 23.5223V10.4367C14.3367 10.1749 14.5554 9.96691 14.828 9.96691H17.2055C17.453 9.97766 17.6502 10.1677 17.6681 10.4044V12.115H17.7147C18.3351 10.4618 19.5006 9.69079 21.0713 9.69079C22.6671 9.69079 23.664 10.4618 24.3813 12.115C24.9981 10.4618 26.4002 9.69079 27.9028 9.69079C28.9714 9.69079 30.1405 10.1319 30.8541 11.1216C31.661 12.2226 31.496 13.8219 31.496 15.2241L31.4924 23.4828C31.4924 23.7446 31.2737 23.9562 31.0011 23.9562H28.455C28.2004 23.9382 27.996 23.7338 27.996 23.4828V16.5474C27.996 15.9951 28.0462 14.618 27.9243 14.0945C27.7342 13.2159 27.164 12.9685 26.4253 12.9685C25.8085 12.9685 25.163 13.3809 24.9012 14.0407C24.6395 14.7005 24.6646 15.805 24.6646 16.5474V23.4828C24.6646 23.7446 24.4458 23.9562 24.1733 23.9562H21.6272C21.369 23.9382 21.1681 23.7338 21.1681 23.4828L21.1646 16.5474C21.1646 15.0878 21.4048 12.9398 19.5939 12.9398C17.7614 12.9398 17.8331 15.034 17.8331 16.5474V23.4828C17.8331 23.7446 17.6143 23.9562 17.3418 23.9562Z" fill="#9CA3AF"/>
<path fill-rule="evenodd" clip-rule="evenodd" d="M64.4663 9.69079C68.2496 9.69079 70.2972 12.9398 70.2972 17.0709C70.2972 21.0622 68.0344 24.2287 64.4663 24.2287C60.7511 24.2287 58.7286 20.9797 58.7286 16.9311C58.7286 12.8573 60.7762 9.69079 64.4663 9.69079ZM64.4878 12.3624C62.6087 12.3624 62.4904 14.9229 62.4904 16.5187C62.4904 18.118 62.4653 21.532 64.4663 21.532C66.4422 21.532 66.5355 18.7779 66.5355 17.0996C66.5355 15.9951 66.4888 14.6754 66.1553 13.6283C65.8684 12.7174 65.2983 12.3624 64.4878 12.3624Z" fill="#9CA3AF"/>
<path fill-rule="evenodd" clip-rule="evenodd" d="M75.2031 23.9562H72.6641C72.4095 23.9382 72.2051 23.7338 72.2051 23.4828L72.2015 10.3937C72.2231 10.1534 72.4346 9.96691 72.6928 9.96691H75.0561C75.2784 9.97766 75.4613 10.1283 75.5115 10.3327V12.3337H75.5581C76.2717 10.5443 77.2722 9.69079 79.033 9.69079C80.177 9.69079 81.2922 10.1032 82.0094 11.2328C82.6765 12.2799 82.6764 14.0407 82.6764 15.3066V23.5438C82.6478 23.7733 82.4362 23.9562 82.1852 23.9562H79.6283C79.3952 23.9382 79.2015 23.7661 79.1765 23.5438V16.4362C79.1765 15.0053 79.3414 12.9111 77.5806 12.9111C76.9603 12.9111 76.3901 13.3271 76.1068 13.9582C75.7482 14.7579 75.7015 15.554 75.7015 16.4362V23.4828C75.698 23.7446 75.4756 23.9562 75.2031 23.9562Z" fill="#9CA3AF"/>
<path fill-rule="evenodd" clip-rule="evenodd" d="M41.2322 17.7056C41.2322 18.699 41.2573 19.5274 40.7553 20.4095C40.3501 21.1267 39.7046 21.5678 38.991 21.5678C38.012 21.5678 37.4382 20.8219 37.4382 19.721C37.4382 17.5478 39.3854 17.1534 41.2322 17.1534V17.7056ZM43.8035 23.9203C43.6349 24.0709 43.3911 24.0817 43.201 23.9813C42.3547 23.2784 42.2005 22.9521 41.7379 22.2815C40.3393 23.7087 39.346 24.1355 37.535 24.1355C35.3869 24.1355 33.7194 22.8122 33.7194 20.1621C33.7194 18.0929 34.8383 16.6836 36.4377 15.9951C37.8219 15.3854 39.7548 15.2779 41.2322 15.1093V14.7794C41.2322 14.1733 41.2789 13.4561 40.9203 12.9326C40.6119 12.4628 40.0166 12.2691 39.4894 12.2691C38.5176 12.2691 37.6533 12.7676 37.4418 13.8004C37.3987 14.0299 37.2302 14.2558 36.9971 14.2666L34.5263 14.0012C34.3183 13.9546 34.0852 13.7861 34.1462 13.4669C34.7128 10.4689 37.4238 9.56525 39.848 9.56525C41.0888 9.56525 42.7097 9.89517 43.6887 10.8347C44.9295 11.993 44.8111 13.5386 44.8111 15.2205V19.1938C44.8111 20.388 45.306 20.9116 45.7722 21.5571C45.9336 21.7866 45.9694 22.0627 45.7614 22.2348C45.2415 22.6688 44.3163 23.4756 43.807 23.9275L43.8035 23.9203Z" fill="#9CA3AF"/>
<path fill-rule="evenodd" clip-rule="evenodd" d="M7.8064 17.7056C7.8064 18.699 7.8315 19.5273 7.32945 20.4095C6.92422 21.1267 6.28231 21.5678 5.5651 21.5678C4.5861 21.5678 4.01592 20.8219 4.01592 19.721C4.01592 17.5478 5.96315 17.1534 7.8064 17.1534V17.7056ZM10.3776 23.9203C10.2091 24.0709 9.96521 24.0817 9.77515 23.9812C8.92883 23.2784 8.77822 22.952 8.31203 22.2815C6.91346 23.7087 5.92371 24.1354 4.10916 24.1354C1.96469 24.1354 0.293579 22.8122 0.293579 20.1621C0.293579 18.0929 1.41602 16.6836 3.01182 15.9951C4.39604 15.3854 6.32893 15.2779 7.8064 15.1093V14.7794C7.8064 14.1733 7.85301 13.4561 7.49799 12.9326C7.186 12.4628 6.59072 12.2691 6.06715 12.2691C5.09533 12.2691 4.2275 12.7676 4.01592 13.8004C3.97289 14.0299 3.80434 14.2558 3.57483 14.2666L1.10044 14.0012C0.892452 13.9546 0.662944 13.786 0.720321 13.4669C1.29051 10.4689 3.99799 9.56525 6.42217 9.56525C7.66295 9.56525 9.28385 9.89517 10.2629 10.8347C11.5036 11.993 11.3853 13.5386 11.3853 15.2205V19.1938C11.3853 20.388 11.8802 20.9116 12.3464 21.5571C12.5113 21.7866 12.5472 22.0627 12.3392 22.2348C11.8192 22.6687 10.894 23.4756 10.3848 23.9275L10.3776 23.9203Z" fill="#9CA3AF"/>
</g>
</g>
<defs>
<clipPath id="clip0_6_208">
<rect width="82.7546" height="36.1111" fill="white" transform="translate(0.293701 0.537476)"/>
</clipPath>
</defs>
</svg>
