<svg width="92" height="37" viewBox="0 0 92 37" fill="none" xmlns="http://www.w3.org/2000/svg">
<g id="Logo" clip-path="url(#clip0_6_201)">
<path id="Vector" d="M28.9065 24.9345L30.011 22.353C31.2203 23.2486 32.7977 23.7226 34.3754 23.7226C35.5323 23.7226 36.2684 23.275 36.2684 22.5902C36.242 20.6934 29.3009 22.1686 29.2481 17.4C29.2217 14.9764 31.3779 13.1061 34.4282 13.1061C36.242 13.1061 38.0565 13.5541 39.3446 14.5816L38.3126 17.2182C37.1274 16.4561 35.6635 15.9248 34.2702 15.9248C33.3237 15.9248 32.6925 16.3724 32.6925 16.9524C32.7189 18.8227 39.7131 17.7952 39.7919 22.353C39.7919 24.8293 37.6881 26.5681 34.6906 26.5681C32.4824 26.5681 30.4578 26.0413 28.9061 24.9345H28.9065ZM72.8854 21.4182C72.6066 21.9136 72.201 22.3259 71.7104 22.6128C71.2197 22.8997 70.6615 23.051 70.093 23.051C68.3215 23.051 66.8856 21.612 66.8856 19.8371C66.8856 18.0621 68.3215 16.6232 70.093 16.6232C70.6615 16.6232 71.2197 16.7745 71.7104 17.0614C72.201 17.3483 72.6066 17.7606 72.8854 18.256L75.956 16.5515C74.8059 14.496 72.612 13.1061 70.093 13.1061C66.3829 13.1061 63.3752 16.1194 63.3752 19.8371C63.3752 23.5544 66.3829 26.5681 70.093 26.5681C72.612 26.5681 74.8059 25.1781 75.956 23.1226L72.8854 21.4182ZM41.7844 26.3045H45.6231V7.50296H41.7848L41.7844 26.3045ZM77.8946 7.50296V26.3045H81.7333V20.6716L86.2821 26.3045H91.1888L85.4043 19.6127L90.768 13.3685H86.0717L81.7333 18.5599V7.50296H77.8946ZM57.4497 13.3693V14.8976C56.8188 13.8437 55.2675 13.1061 53.6374 13.1061C50.2719 13.1061 47.6164 16.0832 47.6164 19.8239C47.6164 23.5646 50.2719 26.5681 53.6374 26.5681C55.2675 26.5681 56.8188 25.8305 57.4497 24.7765V26.3045H61.2885V13.3693H57.4497ZM57.4497 21.4442C56.8976 22.3662 55.7407 23.0506 54.4526 23.0506C52.6807 23.0506 51.2447 21.612 51.2447 19.8371C51.2447 18.0621 52.6807 16.6232 54.4526 16.6232C55.7407 16.6232 56.8976 17.3344 57.4497 18.2824V21.4442Z" fill="#9CA3AF"/>
<path id="Vector_2" d="M8.63456 7.08542C7.39055 7.08542 6.38222 8.09601 6.38222 9.34228C6.38193 9.63836 6.43995 9.9316 6.55298 10.2053C6.66601 10.4789 6.83183 10.7276 7.04098 10.9372C7.25013 11.1468 7.49851 11.3131 7.77194 11.4267C8.04536 11.5402 8.33848 11.5988 8.63456 11.5991H10.8873V9.34228C10.8878 8.74429 10.6507 8.17059 10.2283 7.74735C9.80582 7.32412 9.23256 7.08602 8.63456 7.08542ZM8.63456 13.1037H2.62795C1.38394 13.1037 0.37561 14.1143 0.37561 15.361C0.37561 16.6072 1.38394 17.6178 2.62795 17.6178H8.63494C9.87857 17.6178 10.8873 16.6072 10.8873 15.361C10.8873 14.1143 9.87857 13.1037 8.63456 13.1037Z" fill="#9CA3AF"/>
<path id="Vector_3" d="M22.8999 15.361C22.8999 14.1143 21.8911 13.1037 20.6471 13.1037C19.4031 13.1037 18.3948 14.1143 18.3948 15.361V17.6178H20.6471C21.2451 17.6172 21.8184 17.3791 22.2409 16.9559C22.6633 16.5327 22.9004 15.9589 22.8999 15.361ZM16.8932 15.361V9.34228C16.8937 8.74429 16.6567 8.17059 16.2342 7.74735C15.8118 7.32412 15.2385 7.08602 14.6405 7.08542C13.3965 7.08542 12.3882 8.09601 12.3882 9.34228V15.3606C12.3882 16.6076 13.3965 17.6182 14.6405 17.6182C15.2385 17.6176 15.8118 17.3795 16.2342 16.9563C16.6567 16.533 16.8937 15.9593 16.8932 15.3613" fill="#9CA3AF"/>
<path id="Vector_4" d="M14.6405 29.6558C15.2385 29.6552 15.8118 29.4171 16.2342 28.9939C16.6567 28.5707 16.8937 27.9969 16.8932 27.399C16.8937 26.801 16.6567 26.2273 16.2342 25.804C15.8118 25.3808 15.2385 25.1427 14.6405 25.1421H12.3882V27.399C12.3882 28.6452 13.3965 29.6558 14.6405 29.6558ZM14.6405 23.6375H20.6475C21.8911 23.6375 22.8999 22.6269 22.8999 21.3803C22.9004 20.7823 22.6633 20.2086 22.2409 19.7853C21.8184 19.3621 21.2451 19.124 20.6471 19.1234H14.6405C13.3965 19.1234 12.3882 20.134 12.3882 21.3803C12.3879 21.6764 12.4459 21.9696 12.5589 22.2432C12.672 22.5169 12.8378 22.7656 13.0469 22.9752C13.2561 23.1848 13.5045 23.3511 13.7779 23.4647C14.0513 23.5782 14.3444 23.6368 14.6405 23.6371" fill="#9CA3AF"/>
<path id="Vector_5" d="M0.375611 21.3803C0.375314 21.6764 0.433337 21.9696 0.546367 22.2432C0.659396 22.5169 0.82522 22.7656 1.03437 22.9752C1.24352 23.1848 1.4919 23.3511 1.76532 23.4647C2.03875 23.5782 2.33187 23.6368 2.62795 23.6371C3.22594 23.6365 3.79921 23.3984 4.22166 22.9752C4.64412 22.552 4.88117 21.9783 4.88067 21.3803V19.1234H2.62795C1.38394 19.1234 0.375611 20.134 0.375611 21.3803ZM6.38223 21.3803V27.3986C6.38223 28.6452 7.39056 29.6558 8.63456 29.6558C9.23256 29.6552 9.80582 29.4171 10.2283 28.9939C10.6507 28.5707 10.8878 27.9969 10.8873 27.399V21.3803C10.8876 21.0842 10.8295 20.7909 10.7165 20.5172C10.6034 20.2435 10.4376 19.9948 10.2284 19.7852C10.0192 19.5757 9.77078 19.4093 9.49731 19.2958C9.22383 19.1822 8.93067 19.1237 8.63456 19.1234C7.39056 19.1234 6.38223 20.134 6.38223 21.3803Z" fill="#9CA3AF"/>
</g>
<defs>
<clipPath id="clip0_6_201">
<rect width="91.0301" height="36.1111" fill="white" transform="translate(0.375366 0.537476)"/>
</clipPath>
</defs>
</svg>
