<svg width="106" height="37" viewBox="0 0 106 37" fill="none" xmlns="http://www.w3.org/2000/svg">
<g id="Logo" clip-path="url(#clip0_6_195)">
<path id="Vector" d="M16.5217 2.85367C7.79638 2.85367 0.722778 9.92707 0.722778 18.6524C0.722778 27.3781 7.79638 34.4509 16.5217 34.4509C25.2479 34.4509 32.3208 27.3781 32.3208 18.6524C32.3208 9.92764 25.2479 2.85442 16.5215 2.85442L16.5217 2.85367ZM23.767 25.6399C23.484 26.104 22.8765 26.2512 22.4124 25.9663C18.703 23.7005 14.0333 23.1874 8.53385 24.4438C8.0039 24.5646 7.47566 24.2325 7.35491 23.7024C7.2336 23.1723 7.56432 22.644 8.09559 22.5233C14.1138 21.1483 19.2761 21.7403 23.4406 24.2854C23.9047 24.5702 24.0518 25.1758 23.767 25.6399ZM25.7007 21.3381C25.3442 21.9177 24.5857 22.1007 24.0066 21.7441C19.7598 19.1338 13.2864 18.3779 8.26331 19.9026C7.61187 20.0994 6.92383 19.7323 6.72611 19.082C6.5299 18.4305 6.89723 17.7438 7.54753 17.5457C13.2852 15.8048 20.4183 16.6481 25.2951 19.6449C25.8743 20.0015 26.0573 20.7599 25.7007 21.3383V21.3381ZM25.8667 16.8586C20.7748 13.8342 12.3738 13.5561 7.51225 15.0316C6.73158 15.2684 5.90601 14.8277 5.66943 14.047C5.43285 13.266 5.87318 12.441 6.65442 12.2036C12.2352 10.5095 21.5125 10.8368 27.3749 14.317C28.0786 14.7337 28.3088 15.6406 27.8918 16.3419C27.4768 17.0441 26.5674 17.2755 25.8675 16.8586H25.8667ZM43.7064 17.4382C40.9784 16.7877 40.4935 16.3311 40.4935 15.3718C40.4935 14.4655 41.3462 13.8555 42.6159 13.8555C43.846 13.8555 45.0647 14.3187 46.3438 15.2722C46.3816 15.301 46.4306 15.3125 46.4778 15.305C46.5268 15.2978 46.5683 15.2716 46.5966 15.2322L47.9286 13.3546C47.9833 13.2773 47.9682 13.1707 47.8946 13.1116C46.3721 11.8904 44.6591 11.2967 42.6555 11.2967C39.7106 11.2967 37.6523 13.0643 37.6523 15.5933C37.6523 18.3052 39.4276 19.2655 42.4952 20.0068C45.1043 20.608 45.5458 21.1117 45.5458 22.012C45.5458 23.01 44.6553 23.6307 43.2215 23.6307C41.6292 23.6307 40.3294 23.093 38.8767 21.8366C38.8409 21.8045 38.7918 21.7913 38.7465 21.7932C38.6975 21.7969 38.6541 21.8196 38.6239 21.8554L37.1297 23.6326C37.0675 23.7081 37.075 23.8175 37.1467 23.8816C38.8371 25.3909 40.9161 26.187 43.1612 26.187C46.3344 26.187 48.3851 24.4533 48.3851 21.7686C48.3908 19.5034 47.0343 18.2488 43.712 17.4406L43.7064 17.4382ZM55.5655 14.7479C54.1902 14.7479 53.062 15.2897 52.13 16.4V15.1503C52.13 15.0516 52.0508 14.9713 51.9527 14.9713H49.5095C49.4114 14.9713 49.3322 15.0516 49.3322 15.1503V29.0358C49.3322 29.1339 49.4114 29.215 49.5095 29.215H51.9527C52.0508 29.215 52.13 29.1339 52.13 29.0358V24.6532C53.062 25.6965 54.1902 26.2078 55.5655 26.2078C58.1219 26.2078 60.7103 24.2401 60.7103 20.4784C60.714 16.716 58.1256 14.7477 55.5674 14.7477L55.5655 14.7479ZM57.869 20.4784C57.869 22.3931 56.6899 23.7307 54.9995 23.7307C53.3299 23.7307 52.0697 22.3327 52.0697 20.4784C52.0697 18.6239 53.3299 17.2263 54.9995 17.2263C56.6616 17.2261 57.869 18.5935 57.869 20.4782V20.4784ZM67.3416 14.7479C64.0495 14.7479 61.4706 17.2827 61.4706 20.5193C61.4706 23.7213 64.0326 26.2286 67.302 26.2286C70.6054 26.2286 73.192 23.7024 73.192 20.4784C73.192 17.2654 70.6224 14.7483 67.3416 14.7483V14.7479ZM67.3416 23.7496C65.5909 23.7496 64.2703 22.3422 64.2703 20.4775C64.2703 18.6043 65.5456 17.245 67.302 17.245C69.0641 17.245 70.3923 18.6518 70.3923 20.5184C70.3923 22.3912 69.1094 23.7496 67.3416 23.7496ZM80.2214 14.9713H77.533V12.2232C77.533 12.1248 77.4538 12.0444 77.3557 12.0444H74.9125C74.8144 12.0444 74.7333 12.1248 74.7333 12.2232V14.9713H73.5599C73.4617 14.9713 73.3825 15.0516 73.3825 15.1503V17.2495C73.3825 17.348 73.4617 17.4285 73.5599 17.4285H74.7333V22.861C74.7333 25.0551 75.8257 26.1682 77.982 26.1682C78.8574 26.1682 79.5837 25.9871 80.2686 25.5984C80.3252 25.5682 80.3591 25.5079 80.3591 25.4437V23.4439C80.3591 23.3836 80.3271 23.3251 80.2742 23.293C80.2214 23.2591 80.1554 23.2572 80.1007 23.2855C79.6309 23.5213 79.1762 23.6307 78.6669 23.6307C77.8839 23.6307 77.533 23.2741 77.533 22.478V17.4295H80.2214C80.3195 17.4295 80.3988 17.3491 80.3988 17.2504V15.1514C80.4025 15.0528 80.3233 14.9724 80.2233 14.9724L80.2214 14.9713ZM89.5865 14.982V14.6445C89.5865 13.6516 89.9676 13.2088 90.8203 13.2088C91.3297 13.2088 91.7391 13.3099 92.1975 13.4627C92.2541 13.4805 92.3126 13.4716 92.3579 13.4378C92.405 13.4041 92.4315 13.3499 92.4315 13.2926V11.2343C92.4315 11.1556 92.3824 11.086 92.3051 11.0628C91.8221 10.9189 91.2033 10.7711 90.2751 10.7711C88.0206 10.7711 86.8264 12.0416 86.8264 14.4438V14.9607H85.6529C85.5548 14.9607 85.4737 15.0411 85.4737 15.1395V17.2495C85.4737 17.348 85.5548 17.4285 85.6529 17.4285H86.8264V25.806C86.8264 25.9059 86.9075 25.9852 87.0056 25.9852H89.4469C89.5469 25.9852 89.6261 25.9059 89.6261 25.806V17.4291H91.907L95.401 25.806C95.0048 26.6851 94.6142 26.8606 94.0822 26.8606C93.6521 26.8606 93.1974 26.7323 92.7352 26.4776C92.6918 26.4549 92.639 26.4512 92.5937 26.4644C92.5465 26.4814 92.5069 26.5153 92.4881 26.5606L91.6598 28.3774C91.6202 28.4642 91.6542 28.5642 91.7372 28.6094C92.6012 29.0773 93.3804 29.2773 94.3445 29.2773C96.148 29.2773 97.1461 28.4359 98.0233 26.1757L102.261 15.2265C102.283 15.1714 102.276 15.1092 102.242 15.0603C102.21 15.0118 102.155 14.9826 102.096 14.9826H99.5533C99.476 14.9826 99.4081 15.0311 99.3836 15.1026L96.7782 22.5422L93.9256 15.0977C93.8992 15.0284 93.8332 14.9826 93.7596 14.9826H89.5865V14.982ZM84.1569 14.9713H81.7137C81.6156 14.9713 81.5345 15.0516 81.5345 15.1503V25.806C81.5345 25.9059 81.6156 25.9852 81.7137 25.9852H84.1569C84.255 25.9852 84.3361 25.9059 84.3361 25.806V15.151C84.3361 15.0524 84.2568 14.972 84.1569 14.972V14.9713ZM82.9494 10.1191C81.9816 10.1191 81.1968 10.9024 81.1968 11.8701C81.1968 12.8383 81.9816 13.6225 82.9494 13.6225C83.9173 13.6225 84.7002 12.8383 84.7002 11.8701C84.7002 10.9026 83.9154 10.1191 82.9494 10.1191ZM104.347 18.3975C103.381 18.3975 102.628 17.6212 102.628 16.6784C102.628 15.7357 103.391 14.9505 104.357 14.9505C105.323 14.9505 106.075 15.7266 106.075 16.6686C106.075 17.6114 105.313 18.3975 104.347 18.3975ZM104.357 15.1214C103.476 15.1214 102.81 15.8214 102.81 16.6784C102.81 17.5351 103.472 18.2256 104.347 18.2256C105.228 18.2256 105.894 17.5263 105.894 16.6686C105.894 15.8119 105.232 15.1214 104.357 15.1214ZM104.738 16.8454L105.224 17.5261H104.813L104.375 16.9016H104V17.5261H103.657V15.7217H104.46C104.881 15.7217 105.157 15.9362 105.157 16.2973C105.158 16.5932 104.987 16.7739 104.74 16.8454H104.738ZM104.447 16.0313H104V16.602H104.447C104.67 16.602 104.804 16.4928 104.804 16.3164C104.804 16.1308 104.67 16.0313 104.447 16.0313Z" fill="#9CA3AF"/>
</g>
<defs>
<clipPath id="clip0_6_195">
<rect width="105.324" height="36.1111" fill="white" transform="translate(0.66687 0.537476)"/>
</clipPath>
</defs>
</svg>
