<svg width="73" height="37" viewBox="0 0 73 37" fill="none" xmlns="http://www.w3.org/2000/svg">
<g id="Logo" clip-path="url(#clip0_6_192)">
<g id="Vector">
<path d="M0.437988 27.1657L7.85162 15.6298H1.31623C1.26085 15.2975 1.23711 14.9336 1.23711 14.53C1.23711 14.1424 1.26085 13.7863 1.31623 13.4619H11.8947L12.0292 13.818L4.56019 25.3775H11.5624C11.6178 25.7415 11.6415 26.1213 11.6415 26.5011C11.6415 26.865 11.6178 27.2131 11.5624 27.5455H0.572494L0.437988 27.1657Z" fill="#9CA3AF"/>
<path d="M21.8324 18.2647C21.8324 17.1808 21.5554 16.437 21.0095 16.0098C20.4636 15.5904 19.6644 15.3768 18.62 15.3768C17.9792 15.3768 17.3778 15.4243 16.824 15.5271C16.2622 15.63 15.7242 15.7566 15.1862 15.9227C14.8381 15.3214 14.664 14.5935 14.664 13.7548C15.2891 13.557 15.9695 13.3988 16.7211 13.288C17.4728 13.1772 18.1928 13.1218 18.8891 13.1218C20.7168 13.1218 22.1093 13.5412 23.0666 14.372C24.0161 15.2027 24.4987 16.5399 24.4987 18.3676V27.1817C23.8579 27.3241 23.0825 27.4823 22.1647 27.6326C21.2469 27.7909 20.3132 27.8621 19.3638 27.8621C18.4697 27.8621 17.6548 27.783 16.9348 27.6168C16.2148 27.4507 15.5976 27.1896 15.0912 26.8177C14.5849 26.4537 14.1972 25.9869 13.9203 25.4173C13.6433 24.8476 13.5088 24.1592 13.5088 23.3601C13.5088 22.5768 13.6671 21.8805 13.9915 21.2871C14.308 20.6937 14.7431 20.1953 15.297 19.8076C15.8429 19.412 16.4759 19.1192 17.1959 18.9293C17.908 18.7394 18.6596 18.6366 19.4508 18.6366C20.0363 18.6366 20.5189 18.6524 20.8908 18.6761C21.2627 18.6999 21.5792 18.7394 21.8403 18.7711V18.2647H21.8324ZM21.8324 20.9311C21.5554 20.8915 21.2073 20.8599 20.788 20.8203C20.3686 20.7808 20.0126 20.7649 19.7198 20.7649C18.5805 20.7649 17.7181 20.9786 17.1247 21.3979C16.5313 21.8172 16.2306 22.4581 16.2306 23.3205C16.2306 23.8665 16.3334 24.3016 16.5313 24.6102C16.7291 24.9188 16.9822 25.1562 17.2829 25.3223C17.5836 25.4885 17.9159 25.5913 18.2877 25.623C18.6517 25.6625 18.9998 25.6784 19.3321 25.6784C19.7515 25.6784 20.1866 25.6546 20.6376 25.6071C21.0886 25.5597 21.4842 25.4964 21.8324 25.4014V20.9311Z" fill="#9CA3AF"/>
<path d="M27.4657 13.4625C27.6477 13.4229 27.8376 13.3992 28.0275 13.3834C28.2174 13.3676 28.4152 13.3597 28.6209 13.3597C28.8029 13.3597 28.9927 13.3676 29.1985 13.3834C29.3963 13.3992 29.5941 13.4309 29.776 13.4625C29.7919 13.5021 29.8156 13.6128 29.8473 13.8027C29.871 13.9926 29.9026 14.1983 29.9264 14.4199C29.9501 14.6414 29.9818 14.8471 30.0055 15.0528C30.0292 15.2586 30.0451 15.3852 30.0451 15.4405C30.227 15.1478 30.4486 14.863 30.7018 14.586C30.9549 14.3091 31.2635 14.0638 31.6196 13.8423C31.9756 13.6208 32.3791 13.4467 32.8301 13.3201C33.2811 13.1935 33.7796 13.1302 34.3255 13.1302C35.1484 13.1302 35.9158 13.2647 36.62 13.5416C37.3242 13.8186 37.9255 14.2379 38.4319 14.8155C38.9383 15.3931 39.3259 16.1289 39.6108 17.015C39.8956 17.9012 40.038 18.9535 40.038 20.1641C40.038 22.5852 39.3813 24.4762 38.0758 25.837C36.7624 27.1979 34.911 27.8863 32.5136 27.8863C32.1101 27.8863 31.6987 27.8625 31.2793 27.8072C30.86 27.7518 30.4881 27.6806 30.1796 27.5856V34.0419C29.958 34.0815 29.7286 34.1052 29.4754 34.121C29.2301 34.1368 29.0007 34.1447 28.8029 34.1447C28.6051 34.1447 28.3756 34.1368 28.1303 34.121C27.8851 34.1052 27.6556 34.0735 27.4578 34.0419V13.4625H27.4657ZM30.1875 25.2436C30.5356 25.3702 30.8917 25.4652 31.2556 25.5206C31.6196 25.5759 32.0943 25.5997 32.6877 25.5997C33.3444 25.5997 33.9536 25.4968 34.4996 25.2832C35.0455 25.0696 35.5202 24.7452 35.9158 24.31C36.3114 23.8669 36.62 23.3131 36.8495 22.6485C37.0789 21.9838 37.1897 21.1847 37.1897 20.2748C37.1897 18.8111 36.9207 17.648 36.3826 16.7856C35.8446 15.9232 34.9585 15.4959 33.7321 15.4959C33.2732 15.4959 32.838 15.575 32.4108 15.7412C31.9914 15.9074 31.6117 16.1526 31.2873 16.4849C30.9549 16.8172 30.6938 17.2287 30.4881 17.735C30.2824 18.2414 30.1875 18.8348 30.1875 19.5311V25.2436Z" fill="#9CA3AF"/>
<path d="M43.4244 15.5982H41.6363C41.5967 15.4479 41.573 15.2817 41.5571 15.0918C41.5413 14.9019 41.5334 14.712 41.5334 14.53C41.5334 14.3481 41.5413 14.1582 41.5571 13.9683C41.573 13.7784 41.6046 13.6043 41.6363 13.4619H46.0908V27.5534C45.893 27.5929 45.6635 27.6167 45.4183 27.6325C45.173 27.6483 44.9435 27.6562 44.7457 27.6562C44.5637 27.6562 44.3501 27.6483 44.0969 27.6325C43.8517 27.6167 43.6222 27.585 43.4244 27.5534V15.5982Z" fill="#9CA3AF"/>
<path d="M51.9378 21.1766C51.9774 22.7115 52.373 23.8429 53.1325 24.555C53.8921 25.2671 55.0156 25.6232 56.4952 25.6232C57.7928 25.6232 59.035 25.3937 60.206 24.9348C60.3563 25.2117 60.475 25.544 60.562 25.9397C60.6569 26.3353 60.7044 26.7229 60.7281 27.1106C60.1268 27.3638 59.4622 27.5616 58.7343 27.6882C58.0143 27.8148 57.2073 27.8781 56.329 27.8781C55.0473 27.8781 53.9475 27.6961 53.0297 27.3401C52.1119 26.9841 51.3602 26.4777 50.7668 25.8289C50.1734 25.1801 49.7382 24.4126 49.4613 23.5185C49.1844 22.6324 49.0499 21.6592 49.0499 20.5911C49.0499 19.5467 49.1844 18.5735 49.4455 17.6636C49.7066 16.7537 50.118 15.9704 50.664 15.2979C51.2099 14.6333 51.9062 14.0952 52.7369 13.7075C53.5677 13.3119 54.5567 13.1141 55.6881 13.1141C56.6613 13.1141 57.5079 13.2803 58.2437 13.6126C58.9796 13.9449 59.5888 14.3959 60.0873 14.9735C60.5778 15.5511 60.9576 16.2394 61.2108 17.0306C61.464 17.8297 61.5985 18.6922 61.5985 19.6258C61.5985 19.879 61.5906 20.1559 61.5668 20.4328C61.551 20.7177 61.5273 20.9629 61.5114 21.1607H51.9378V21.1766ZM58.9163 19.1432C58.9163 18.6289 58.8451 18.1383 58.7106 17.6715C58.5761 17.2047 58.3703 16.8012 58.1092 16.453C57.8402 16.1049 57.5079 15.828 57.0965 15.6144C56.6851 15.4007 56.1945 15.2979 55.6248 15.2979C54.5092 15.2979 53.6547 15.6381 53.0534 16.3106C52.46 16.9911 52.0961 17.9326 51.9695 19.1432H58.9163Z" fill="#9CA3AF"/>
<path d="M64.6051 13.4619C64.8029 13.4224 65.0007 13.3986 65.1827 13.3828C65.3647 13.367 65.5546 13.3591 65.7603 13.3591C65.9581 13.3591 66.1638 13.367 66.3616 13.3828C66.5594 13.3986 66.7493 13.4303 66.9076 13.4619C66.9629 13.7388 67.0183 14.0949 67.0737 14.5459C67.1291 14.9969 67.1528 15.3766 67.1528 15.6852C67.5405 15.0602 68.0469 14.5221 68.6799 14.0632C69.3128 13.6043 70.1199 13.3749 71.1089 13.3749C71.2592 13.3749 71.4095 13.3828 71.5599 13.3907C71.7181 13.3986 71.8447 13.4144 71.9555 13.4303C71.995 13.5964 72.0188 13.7705 72.0346 13.9525C72.0504 14.1344 72.0583 14.3243 72.0583 14.53C72.0583 14.7516 72.0425 14.981 72.0188 15.2184C71.995 15.4558 71.9555 15.6852 71.9238 15.9068C71.7735 15.8672 71.6232 15.8514 71.4728 15.8514C71.3146 15.8514 71.1959 15.8514 71.101 15.8514C70.6104 15.8514 70.1357 15.9226 69.6847 16.0571C69.2337 16.1916 68.8302 16.4369 68.4742 16.785C68.1181 17.1331 67.8333 17.6079 67.6196 18.2171C67.406 18.8184 67.3032 19.6017 67.3032 20.5512V27.5534C67.1054 27.5929 66.8759 27.6167 66.6306 27.6325C66.3854 27.6483 66.1559 27.6562 65.9581 27.6562C65.7603 27.6562 65.5308 27.6483 65.2856 27.6325C65.0403 27.6167 64.8029 27.585 64.5814 27.5534V13.4619H64.6051Z" fill="#9CA3AF"/>
<path d="M48.6779 5.17034H46.0195L47.9025 3.28726C47.7522 3.08154 47.5861 2.88374 47.412 2.70176C47.23 2.51978 47.0401 2.35363 46.8265 2.21121L44.9434 4.09429V1.43582C44.6981 1.39626 44.445 1.37253 44.1839 1.37253H44.1759C43.9148 1.37253 43.6617 1.39626 43.4164 1.43582V4.09429L41.5333 2.21121C41.3276 2.36154 41.1298 2.5277 40.9478 2.70176C40.7658 2.88374 40.6076 3.07363 40.4573 3.28726L42.3482 5.17034H39.6898C39.6898 5.17034 39.6265 5.6688 39.6265 5.9299C39.6265 6.191 39.6502 6.44419 39.6898 6.68946H42.3482L40.4652 8.57254C40.7579 8.98397 41.1219 9.34793 41.5412 9.64859L43.4243 7.76551V10.424C43.6696 10.4635 43.9228 10.4873 44.1839 10.4873H44.1918C44.4529 10.4873 44.7061 10.4635 44.9513 10.424V7.76551L46.8344 9.64859C47.0401 9.49826 47.2379 9.3321 47.4199 9.15804C47.6019 8.97606 47.768 8.78617 47.9105 8.57254L46.0274 6.68946H48.6858C48.7254 6.44419 48.7491 6.191 48.7491 5.9299V5.92199C48.7412 5.6688 48.7254 5.41561 48.6779 5.17034ZM45.3232 5.93781C45.3232 6.27803 45.2599 6.60243 45.1491 6.90309C44.8485 7.01386 44.5241 7.07716 44.1839 7.07716C43.8436 7.07716 43.5192 7.01386 43.2186 6.90309C43.1078 6.60243 43.0445 6.27803 43.0445 5.93781V5.9299C43.0445 5.58968 43.1078 5.26528 43.2186 4.96462C43.5192 4.85385 43.8436 4.79056 44.1839 4.79056C44.5241 4.79056 44.8485 4.85385 45.1491 4.96462C45.2599 5.26528 45.3232 5.58968 45.3232 5.93781Z" fill="#9CA3AF"/>
</g>
</g>
<defs>
<clipPath id="clip0_6_192">
<rect width="72.2222" height="36.1111" fill="white" transform="translate(0.437073 0.537476)"/>
</clipPath>
</defs>
</svg>
