<svg width="74" height="37" viewBox="0 0 74 37" fill="none" xmlns="http://www.w3.org/2000/svg">
<g id="Logo" clip-path="url(#clip0_6_198)">
<path id="Vector" fill-rule="evenodd" clip-rule="evenodd" d="M60.211 16.0349C60.4926 16.5207 60.5847 17.0733 60.6151 17.6946L60.655 18.5226V24.313L60.6959 25.1419C60.7776 26.4957 61.7759 27.4967 63.1401 27.5818L63.9647 27.6227V18.5226L64.0056 17.6946C64.0394 17.0802 64.1307 16.5172 64.4165 16.028C64.7078 15.5262 65.126 15.1099 65.6291 14.8209C66.1321 14.5319 66.7024 14.3803 67.2826 14.3813C67.8628 14.3824 68.4325 14.536 68.9345 14.8269C69.4365 15.1178 69.8532 15.5356 70.1426 16.0384C70.4242 16.5241 70.5119 17.0872 70.5458 17.6946L70.5866 18.52V24.313L70.6275 25.1419C70.7126 26.5027 71.7032 27.5036 73.0717 27.5818L73.8963 27.6227V17.6946C73.8963 15.939 73.1991 14.2553 71.958 13.0137C70.7168 11.7721 69.0334 11.0742 67.2778 11.0735C66.3382 11.0725 65.4092 11.272 64.5529 11.6588C63.6965 12.0455 62.9326 12.6106 62.312 13.3161C61.6912 12.6108 60.9273 12.0459 60.071 11.6591C59.2147 11.2722 58.2859 11.0723 57.3463 11.0726C55.9716 11.0726 54.6961 11.4897 53.6395 12.21C52.9948 11.4906 51.5524 11.0726 50.7243 11.0726V27.6227L51.5524 27.5818C52.9374 27.4906 53.9384 26.5166 53.9923 25.1419L54.0366 24.313V18.5226L54.0774 17.6946C54.1122 17.0698 54.1991 16.5207 54.4815 16.0315C54.773 15.53 55.191 15.1138 55.6937 14.8244C56.1964 14.535 56.7662 14.3826 57.3463 14.3823C57.9267 14.3824 58.497 14.5352 58.9998 14.8252C59.5026 15.1153 59.9203 15.5325 60.211 16.0349ZM3.55576 27.5827L4.38382 27.6227H16.7961L16.7553 26.7972C16.6432 25.4365 15.6796 24.4425 14.3146 24.3539L13.4865 24.313H6.03996L15.9681 14.3814L15.9272 13.5568C15.8629 12.1822 14.8585 11.1891 13.4865 11.1135L12.6584 11.0761L0.246094 11.0726L0.286932 11.9007C0.395546 13.2484 1.37306 14.2632 2.72682 14.3414L3.55576 14.3823H11.0023L1.07416 24.3139L1.115 25.1419C1.19668 26.5061 2.18115 27.4941 3.55576 27.5818V27.5827ZM47.4755 13.4951C48.244 14.2635 48.8537 15.1758 49.2696 16.1798C49.6856 17.1839 49.8997 18.26 49.8997 19.3468C49.8997 20.4336 49.6856 21.5097 49.2696 22.5137C48.8537 23.5178 48.244 24.43 47.4755 25.1984C45.9227 26.7499 43.8175 27.6214 41.6225 27.6214C39.4275 27.6214 37.3223 26.7499 35.7696 25.1984C32.5381 21.967 32.5381 16.7266 35.7696 13.4951C36.5374 12.727 37.4491 12.1176 38.4524 11.7018C39.4558 11.286 40.5312 11.0719 41.6173 11.0717C42.7052 11.071 43.7825 11.2847 44.7877 11.7007C45.7929 12.1167 46.7063 12.7267 47.4755 13.496V13.4951ZM45.1338 15.8386C46.0646 16.7701 46.5874 18.033 46.5874 19.3498C46.5874 20.6666 46.0646 21.9296 45.1338 22.8611C44.2023 23.7919 42.9394 24.3147 41.6225 24.3147C40.3057 24.3147 39.0428 23.7919 38.1113 22.8611C37.1805 21.9296 36.6576 20.6666 36.6576 19.3498C36.6576 18.033 37.1805 16.7701 38.1113 15.8386C39.0428 14.9078 40.3057 14.3849 41.6225 14.3849C42.9394 14.3849 44.2023 14.9078 45.1338 15.8386ZM24.2496 11.0717C25.3358 11.072 26.4113 11.2863 27.4146 11.7022C28.418 12.1182 29.3296 12.7277 30.0974 13.496C33.3297 16.7266 33.3297 21.9678 30.0974 25.1984C28.5446 26.7499 26.4394 27.6214 24.2444 27.6214C22.0494 27.6214 19.9442 26.7499 18.3915 25.1984C15.16 21.967 15.16 16.7266 18.3915 13.4951C19.1593 12.727 20.0709 12.1176 21.0743 11.7018C22.0777 11.286 23.1531 11.0719 24.2392 11.0717H24.2496ZM27.7557 15.8368C28.6867 16.7684 29.2097 18.0315 29.2097 19.3485C29.2097 20.6656 28.6867 21.9287 27.7557 22.8602C26.8242 23.791 25.5612 24.3138 24.2444 24.3138C22.9276 24.3138 21.6646 23.791 20.7332 22.8602C19.8024 21.9287 19.2795 20.6658 19.2795 19.349C19.2795 18.0321 19.8024 16.7692 20.7332 15.8377C21.6646 14.9069 22.9276 14.3841 24.2444 14.3841C25.5612 14.3841 26.8242 14.9069 27.7557 15.8377V15.8368Z" fill="#9CA3AF"/>
</g>
<defs>
<clipPath id="clip0_6_198">
<rect width="73.7268" height="36.1111" fill="white" transform="translate(0.246216 0.537476)"/>
</clipPath>
</defs>
</svg>
